Coordinates
version=1
nRows=7
nColumns=40
inDegrees=yes

Units are S.I. units (second, meters, Newtons, ...)
If the header above contains a line with 'inDegrees', this indicates whether rotational values are in degrees (yes) or radians (no).

endheader
time	pelvis_tilt	pelvis_list	pelvis_rotation	pelvis_tx	pelvis_ty	pelvis_tz	hip_flexion_r	hip_adduction_r	hip_rotation_r	knee_angle_r	knee_angle_r_beta	ankle_angle_r	subtalar_angle_r	mtp_angle_r	hip_flexion_l	hip_adduction_l	hip_rotation_l	knee_angle_l	knee_angle_l_beta	ankle_angle_l	subtalar_angle_l	mtp_angle_l	lumbar_extension	lumbar_bending	lumbar_rotation	arm_flex_r	arm_add_r	arm_rot_r	elbow_flex_r	pro_sup_r	wrist_flex_r	wrist_dev_r	arm_flex_l	arm_add_l	arm_rot_l	elbow_flex_l	pro_sup_l	wrist_flex_l	wrist_dev_l
      1.55000000	     -1.41663737	    -10.32437291	     83.90066526	      0.24681011	      0.93910304	     -0.76660136	    -11.34700024	     -0.69420261	      2.97926897	     15.34762856	      0.26786665	      7.55678087	      0.00000000	      0.00000000	     35.96256101	     -1.23344634	     -5.09581648	      2.56436168	      0.04475655	     -2.62706554	      0.00000000	      0.00000000	      3.11638290	     -3.44911243	      5.58695208	      0.00000000	      0.00000000	      0.00000000	      0.00000000	      0.00000000	      0.00000000	      0.00000000	      0.00000000	      0.00000000	      0.00000000	      0.00000000	      0.00000000	      0.00000000	      0.00000000
      1.56000000	     -2.07516694	    -10.33764922	     84.19605962	      0.24498565	      0.93945244	     -0.78730300	    -10.32612240	     -1.53407814	      2.06821289	     18.72519350	      0.32681628	      4.51669641	      0.00000000	      0.00000000	     35.91794244	     -0.26470050	     -5.06789885	      4.18490848	      0.07304043	     -4.64819457	      0.00000000	      0.00000000	      3.25993240	     -4.27967796	      5.13906022	      0.00000000	      0.00000000	      0.00000000	      0.00000000	      0.00000000	      0.00000000	      0.00000000	      0.00000000	      0.00000000	      0.00000000	      0.00000000	      0.00000000	      0.00000000	      0.00000000
      1.57000000	     -2.77807243	    -10.29667082	     84.54826691	      0.24303070	      0.94038721	     -0.80789974	     -9.02919523	     -2.44518794	      1.12813167	     22.51925872	      0.39303521	      0.96499899	     -0.00000000	      0.00000000	     35.81318765	      0.76696711	     -4.90718364	      5.91043310	      0.10315652	     -6.52129029	      0.00000000	     -0.00000000	      3.31399638	     -5.16403430	      4.58366847	     -0.00000000	     -0.00000000	      0.00000000	      0.00000000	      0.00000000	     -0.00000000	     -0.00000000	      0.00000000	      0.00000000	     -0.00000000	      0.00000000	      0.00000000	     -0.00000000	     -0.00000000
      1.58000000	     -3.50755670	    -10.21609208	     84.94943448	      0.24100639	      0.94176570	     -0.82824407	     -7.45876770	     -3.40300014	      0.29407263	     26.69038391	      0.46583508	     -2.89887295	      0.00000000	      0.00000000	     35.66716850	      1.83344439	     -4.65040311	      7.70357491	      0.13445275	     -8.01972655	      0.00000000	      0.00000000	      3.26252477	     -6.07659507	      3.92185744	      0.00000000	      0.00000000	      0.00000000	      0.00000000	      0.00000000	      0.00000000	      0.00000000	      0.00000000	      0.00000000	      0.00000000	      0.00000000	      0.00000000	      0.00000000	      0.00000000
      1.59000000	     -4.20288139	    -10.33061891	     85.34088967	      0.23906006	      0.94319892	     -0.84806611	     -5.34123448	     -4.29217287	     -0.25238767	     31.22773836	      0.54502685	     -6.67146655	      0.00000000	      0.00000000	     35.77844033	      2.81842314	     -4.31744273	      9.63621760	      0.16818372	     -9.01346749	      0.00000000	      0.00000000	      3.39382309	     -6.92901390	      3.25752290	      0.00000000	      0.00000000	      0.00000000	      0.00000000	      0.00000000	      0.00000000	      0.00000000	      0.00000000	      0.00000000	      0.00000000	      0.00000000	      0.00000000	      0.00000000	      0.00000000
      1.60000000	     -4.96356740	    -10.07835168	     85.78810562	      0.23696314	      0.94542154	     -0.86791582	     -3.52215687	     -5.29552269	     -0.73413488	     35.68151411	      0.62275990	    -10.36503446	     -0.00000000	      0.00000000	     35.38034961	      3.94290987	     -3.95592483	     11.41799036	      0.19928153	     -9.42918053	     -0.00000000	      0.00000000	      3.07472837	     -7.85133820	      2.45590188	     -0.00000000	     -0.00000000	      0.00000000	      0.00000000	      0.00000000	      0.00000000	     -0.00000000	     -0.00000000	     -0.00000000	      0.00000000	      0.00000000	      0.00000000	      0.00000000	     -0.00000000
      1.61000000	     -5.59910435	    -10.20553564	     86.16376093	      0.23514638	      0.94729894	     -0.88698047	     -1.01812566	     -6.08785088	     -0.87545351	     40.31056221	      0.70355203	    -13.19198044	      0.00000000	      0.00000000	     35.40766928	      4.84948599	     -3.63133507	     13.24982252	      0.23125303	     -9.32555455	      0.00000000	      0.00000000	      3.12747458	     -8.61856628	      1.77540370	      0.00000000	      0.00000000	      0.00000000	      0.00000000	      0.00000000	      0.00000000	      0.00000000	      0.00000000	      0.00000000	      0.00000000	      0.00000000	      0.00000000	      0.00000000	      0.00000000
